<?xml version="1.0" standalone="no"?>
<!DOCTYPE svg PUBLIC "-//W3C//DTD SVG 20010904//EN"
 "http://www.w3.org/TR/2001/REC-SVG-20010904/DTD/svg10.dtd">
<svg version="1.0" xmlns="http://www.w3.org/2000/svg"
 width="1400.000000pt" height="499.000000pt" viewBox="0 0 1400.000000 499.000000"
 preserveAspectRatio="xMidYMid meet">

<g transform="translate(0.000000,499.000000) scale(0.100000,-0.100000)"
fill="#000000" stroke="none">
<path d="M920 4965 c0 -14 -6 -25 -13 -25 -9 0 -11 -12 -9 -39 4 -36 -13 -81
-51 -133 -9 -14 -9 -22 1 -38 23 -37 16 -52 -23 -44 -60 11 -43 -32 33 -79 26
-17 42 -35 42 -47 0 -27 -16 -25 -51 5 -29 24 -94 43 -106 31 -5 -5 18 -37
117 -161 37 -46 53 -95 31 -95 -5 0 -39 32 -74 71 -84 92 -108 91 -67 -1 44
-98 37 -112 -32 -65 -20 14 -39 25 -42 25 -15 0 -2 -33 33 -86 46 -69 58 -108
41 -129 -18 -21 -25 -19 -70 21 -32 29 -41 33 -46 21 -3 -9 -13 -18 -21 -21
-13 -6 -14 -4 -3 9 11 14 10 20 -9 38 -15 15 -22 17 -19 7 1 -8 -7 -31 -20
-51 -12 -20 -20 -44 -16 -52 3 -9 -4 -21 -17 -31 -27 -19 -32 -41 -13 -57 8
-6 14 -18 14 -25 0 -17 -22 -18 -37 -3 -8 8 -13 8 -17 0 -4 -6 -12 -11 -18
-11 -6 0 -3 9 7 20 17 18 17 20 2 14 -13 -5 -17 0 -17 20 0 21 -7 30 -35 42
-30 12 -34 17 -25 34 14 27 13 30 -12 31 -20 0 -21 2 -7 11 14 10 13 13 -7 35
-18 20 -26 22 -48 13 -15 -5 -39 -10 -54 -9 -25 1 -24 2 8 12 30 9 32 11 13
15 -25 4 -30 30 -10 51 10 11 7 12 -13 6 -14 -4 -31 -10 -37 -12 -7 -3 -13 0
-13 6 0 6 8 11 18 11 21 0 62 27 62 41 0 5 -18 9 -39 9 -45 0 -62 23 -31 42
28 18 25 28 -7 28 -25 1 -26 2 -10 14 23 18 22 26 -4 26 -17 0 -19 3 -10 14
10 12 8 14 -11 9 -22 -4 -22 -4 -4 11 11 9 15 16 8 16 -6 0 -9 7 -6 15 4 9 0
15 -7 15 -11 0 -11 3 1 10 13 9 13 10 0 10 -10 0 -17 10 -18 27 -3 34 -21 55
-24 28 0 -11 -1 -26 -1 -32 1 -7 -6 -13 -14 -13 -8 0 -11 -5 -7 -12 4 -6 3 -8
-3 -5 -6 4 -16 0 -23 -8 -16 -19 -34 -19 -49 -1 -9 11 -4 17 26 29 l38 15 -27
7 c-33 8 -34 12 -11 37 15 17 15 18 -1 18 -9 0 -14 5 -11 10 4 6 -5 10 -19 10
l-26 0 0 -2335 0 -2335 7000 0 7000 0 0 1707 c0 938 -4 1711 -8 1717 -5 6 -14
30 -21 53 -12 42 -12 42 -31 23 -11 -11 -26 -20 -32 -20 -10 0 -9 3 1 9 9 6
11 16 5 32 -4 13 -9 27 -10 32 -1 4 -3 9 -4 12 -4 7 -7 23 -9 37 -2 20 -32
-16 -34 -40 -1 -12 -5 -22 -10 -22 -5 0 -4 -7 3 -15 10 -12 10 -15 0 -15 -9 0
-9 -4 1 -17 12 -15 12 -16 -4 -10 -13 5 -16 3 -10 -6 4 -6 8 -17 9 -24 3 -15
-28 -4 -40 15 -6 10 -10 11 -15 3 -17 -26 -48 7 -42 43 1 4 -2 13 -7 20 -6 6
-13 26 -17 45 l-7 35 -15 -40 c-9 -21 -16 -49 -17 -61 0 -11 -4 -19 -8 -16
-12 7 -9 -22 3 -34 8 -8 5 -13 -11 -18 -19 -6 -20 -8 -6 -29 16 -26 8 -50 -13
-36 -8 4 -20 21 -27 37 -8 18 -13 22 -13 11 -1 -11 -6 -15 -15 -12 -8 3 -12
12 -9 19 2 8 1 20 -3 27 -5 7 -9 18 -10 25 -1 6 -6 19 -12 29 -8 15 -11 12
-18 -17 -5 -19 -8 -43 -9 -53 0 -20 -31 -32 -32 -12 -1 19 -13 79 -28 139 -8
32 -15 62 -15 65 -2 26 -30 -68 -30 -99 0 -50 -26 -94 -45 -76 -10 9 -10 14 2
23 13 9 13 13 2 25 -8 8 -15 23 -15 34 -3 34 -10 64 -17 71 -4 4 -8 19 -8 33
-1 18 -5 10 -13 -22 -6 -27 -15 -45 -20 -40 -5 4 -3 -2 3 -14 8 -16 8 -23 1
-23 -6 0 -9 -4 -6 -9 9 -14 -3 -38 -19 -38 -8 0 -12 4 -9 8 2 4 0 10 -5 13 -9
6 -22 -17 -26 -46 -2 -25 -6 -26 -44 -13 l-34 12 26 7 c30 7 37 26 10 26 -16
1 -16 2 1 15 19 14 19 15 -7 15 -31 0 -32 3 -12 34 15 22 14 24 -5 29 -23 6
-27 27 -6 27 12 0 12 5 3 30 -6 17 -15 30 -20 30 -4 0 -6 4 -2 10 3 5 3 21 -1
35 l-6 26 -18 -28 c-12 -19 -15 -33 -8 -46 6 -12 5 -17 -4 -15 -8 2 -12 -6
-11 -20 2 -13 -1 -21 -7 -17 -16 10 -12 -11 5 -25 17 -14 20 -30 5 -30 -13 0
-40 54 -40 82 -1 20 -3 18 -19 -12 -11 -23 -14 -39 -8 -47 6 -9 4 -15 -7 -19
-9 -3 -13 -10 -10 -15 3 -5 0 -9 -6 -9 -7 0 -8 -6 0 -19 15 -29 13 -34 -16
-27 -27 7 -27 0 5 -39 15 -19 15 -19 -3 -5 -17 14 -18 13 -12 -8 5 -14 3 -22
-5 -22 -7 0 -5 -8 7 -21 19 -22 19 -22 -3 -10 -12 6 -25 16 -28 21 -11 17 -25
11 -25 -11 0 -11 -4 -18 -9 -14 -6 3 -9 -6 -8 -19 1 -14 -2 -25 -8 -26 -10 -1
-29 -39 -27 -52 1 -5 -7 -8 -18 -8 -21 0 -27 14 -11 24 11 7 9 24 -7 52 -6 12
-9 23 -7 26 2 2 -2 21 -9 42 -8 22 -16 34 -20 27 -4 -6 -5 -15 -2 -20 4 -5 1
-11 -5 -13 -6 -2 -11 -20 -12 -40 0 -20 -5 -35 -9 -32 -13 8 -9 -31 5 -46 6
-8 2 -6 -10 4 -26 22 -30 11 -7 -22 8 -12 12 -22 9 -22 -3 0 -1 -9 4 -19 8
-15 7 -20 -5 -25 -9 -3 -20 -4 -25 0 -5 3 -9 0 -9 -6 0 -6 -5 -8 -11 -4 -8 5
-8 8 0 14 9 5 9 14 0 36 -6 16 -13 40 -15 53 -1 13 -5 25 -7 28 -10 9 -47 -84
-52 -132 -4 -27 -8 -51 -10 -53 -6 -6 -34 59 -41 94 -9 47 -21 51 -28 9 -4
-20 -11 -33 -17 -30 -5 4 -7 11 -4 16 4 5 2 9 -4 9 -6 0 -8 7 -5 15 4 8 1 15
-5 15 -6 0 -10 3 -10 8 1 4 1 13 0 20 -2 28 -31 -17 -33 -52 -4 -47 -14 -46
-24 2 -4 20 -8 40 -9 45 -2 4 -3 14 -4 22 -2 31 -21 14 -21 -20 0 -19 -5 -35
-11 -35 -6 0 -9 -7 -5 -15 3 -8 0 -15 -6 -15 -7 0 -6 -5 2 -15 7 -9 10 -19 6
-22 -10 -10 -26 17 -27 47 0 14 -3 19 -6 13 -8 -22 -23 -14 -23 11 0 36 -17
41 -26 8 -4 -15 -7 -30 -6 -34 1 -5 -3 -8 -9 -8 -6 0 -9 -9 -6 -20 3 -11 1
-18 -4 -14 -14 8 -11 -20 4 -35 10 -11 9 -13 -5 -8 -15 5 -18 -8 -8 -48 5 -20
0 -36 -10 -30 -5 3 -10 11 -10 16 0 6 5 7 12 3 7 -4 8 -3 4 4 -4 6 -13 9 -21
5 -9 -3 -15 1 -15 11 0 9 -4 16 -10 16 -5 0 -10 -4 -10 -10 0 -5 -7 -7 -15 -4
-8 4 -12 10 -9 16 3 5 2 17 -2 26 -4 9 -9 26 -11 36 -6 31 -10 30 -27 -2 -8
-16 -12 -39 -9 -51 5 -21 4 -22 -16 -9 -12 7 -19 19 -16 25 2 7 1 13 -4 13 -4
0 -8 6 -8 13 0 29 -26 147 -33 147 -9 0 -30 -68 -30 -97 0 -54 -2 -64 -20 -73
-22 -12 -35 11 -17 30 9 10 9 11 -3 5 -13 -8 -13 -7 -1 8 11 14 11 17 -1 17
-9 0 -13 10 -12 29 1 16 -4 40 -10 53 -7 13 -11 29 -9 35 2 6 0 14 -6 17 -5 3
-12 -12 -16 -34 -4 -27 -11 -38 -18 -33 -7 4 -6 -1 2 -11 9 -11 11 -20 5 -24
-5 -4 -9 -17 -8 -29 1 -15 -4 -21 -17 -20 -10 1 -16 4 -14 7 2 3 0 11 -4 18
-4 7 -14 -9 -25 -43 -9 -30 -20 -55 -23 -55 -3 0 -3 6 0 14 4 10 -4 18 -21 24
-27 9 -27 9 -4 16 26 9 30 26 5 26 -15 0 -14 2 3 15 19 14 18 14 -3 15 -26 0
-26 0 -14 33 8 21 6 26 -10 30 -22 6 -26 27 -5 27 12 0 12 5 3 30 -6 17 -15
30 -20 30 -4 0 -5 5 -2 11 4 5 4 22 0 36 l-6 26 -15 -28 c-8 -15 -12 -36 -8
-47 3 -10 2 -18 -3 -17 -20 3 -23 -2 -12 -23 10 -18 9 -20 -6 -14 -16 6 -16 5
-1 -18 18 -28 20 -36 8 -36 -12 0 -42 67 -42 92 0 25 -8 20 -13 -8 -2 -10 -7
-27 -11 -36 -4 -9 -5 -22 -1 -28 3 -5 -1 -13 -10 -16 -12 -5 -13 -9 -4 -20 10
-12 8 -13 -6 -8 -15 6 -16 4 -6 -14 16 -29 14 -35 -8 -29 -17 4 -19 0 -15 -34
3 -26 1 -39 -7 -39 -8 0 -7 -5 2 -17 13 -17 13 -17 -6 -3 -11 8 -23 19 -26 24
-9 11 -32 -61 -24 -74 5 -9 -7 -14 -26 -12 -4 1 -12 -12 -19 -28 -7 -17 -19
-30 -26 -30 -11 0 -11 5 -2 25 9 19 9 28 0 37 -7 7 -12 22 -12 34 0 32 -26 89
-34 75 -4 -6 -5 -15 -2 -20 4 -5 1 -11 -5 -13 -6 -2 -11 -20 -12 -40 0 -20 -5
-35 -9 -32 -13 8 -9 -31 5 -46 6 -8 1 -6 -12 5 l-24 20 17 -32 c9 -18 14 -33
10 -33 -4 0 -1 -7 7 -16 10 -13 10 -17 -2 -24 -8 -6 -15 -5 -17 1 -3 6 -10 5
-20 -3 -11 -9 -14 -9 -9 -1 4 7 0 38 -9 69 l-16 57 -24 -49 c-13 -27 -24 -60
-25 -74 0 -14 -4 -34 -9 -45 -7 -17 -9 -17 -9 -2 -1 9 -6 17 -11 17 -6 0 -9 3
-8 8 4 15 -15 77 -26 84 -9 6 -31 -43 -40 -92 -2 -8 -8 -26 -14 -40 -9 -22
-11 -23 -17 -8 -4 10 -11 15 -16 12 -5 -3 -6 -10 -3 -16 4 -7 2 -8 -5 -4 -6 4
-9 11 -6 16 3 5 1 11 -5 15 -7 4 -7 12 0 26 6 11 7 19 1 19 -5 0 -12 24 -16
53 -8 61 -19 85 -29 68 -4 -6 -5 -11 -1 -11 3 0 -1 -13 -9 -29 -9 -16 -13 -31
-10 -33 3 -3 -2 -8 -11 -11 -10 -4 -15 0 -16 11 0 12 -4 9 -11 -8 -6 -14 -10
-31 -9 -37 1 -7 -3 -13 -10 -13 -8 0 -10 -12 -6 -36 5 -31 4 -35 -11 -29 -14
5 -15 4 -4 -6 17 -18 15 -34 -3 -19 -12 10 -15 10 -15 -4 0 -9 -6 -16 -13 -16
-16 0 -22 66 -7 75 6 4 8 11 4 16 -3 5 2 21 10 34 15 23 15 25 1 25 -9 0 -13
5 -10 10 3 6 17 10 31 10 17 0 24 5 24 20 0 11 5 20 10 20 6 0 10 7 10 16 0
12 -6 15 -22 10 -57 -17 -161 -36 -166 -31 -3 3 9 11 26 17 18 7 32 16 32 20
0 4 5 8 11 8 13 0 49 38 49 51 0 4 7 15 16 23 26 26 -5 19 -55 -13 -28 -18
-67 -33 -98 -37 -62 -8 -71 7 -19 31 18 9 43 25 54 35 12 11 27 20 34 20 9 0
9 3 1 11 -9 9 -4 18 18 36 16 14 29 31 29 39 0 17 -4 17 -38 0 -41 -20 -82
-28 -82 -15 0 6 8 13 18 16 16 4 65 92 57 101 -2 2 -26 -8 -54 -22 -77 -40
-89 -33 -37 20 85 85 79 107 -16 60 -26 -13 -50 -21 -53 -18 -12 12 -4 42 11
42 22 0 84 30 84 41 0 12 -57 11 -65 -1 -3 -5 -10 -10 -16 -10 -16 0 -10 21
16 52 27 32 25 52 -4 43 -16 -5 -18 1 -15 60 2 36 0 65 -5 65 -5 0 -12 10 -16
23 l-8 22 -4 -22 c-2 -13 -8 -23 -14 -23 -5 0 -7 -14 -5 -32 5 -41 -14 -84
-36 -80 -26 5 -29 -13 -8 -38 18 -21 27 -50 15 -50 -2 0 -15 5 -28 11 -16 7
-31 8 -41 2 -14 -8 -9 -14 28 -41 24 -18 49 -32 56 -32 15 0 9 -32 -7 -37 -6
-2 -21 5 -32 16 -27 27 -55 41 -82 41 -21 0 -21 -1 5 -25 16 -14 39 -33 52
-42 28 -18 31 -33 7 -33 -13 0 -5 -12 26 -40 24 -22 41 -43 38 -47 -13 -12
-68 21 -98 58 -17 22 -35 39 -39 39 -11 0 14 -85 30 -105 24 -29 4 -34 -33 -9
-21 14 -42 24 -48 22 -13 -4 33 -67 51 -69 10 0 11 -2 3 -6 -18 -7 -16 -23 3
-23 12 0 15 -6 10 -22 -3 -13 -6 -26 -6 -30 0 -17 -29 -7 -35 13 -5 15 -10 17
-20 9 -9 -8 -15 -8 -20 0 -3 5 -13 10 -22 10 -15 0 -15 -2 -1 -17 22 -25 32
-63 18 -63 -7 0 -10 -8 -7 -20 9 -33 -23 -21 -38 15 -7 18 -9 18 -12 3 -3 -10
-8 -18 -12 -18 -4 0 -7 -12 -6 -27 1 -16 -2 -33 -7 -40 -6 -7 -6 -18 -2 -24 4
-8 3 -9 -4 -5 -14 9 -15 -3 -3 -24 14 -21 3 -32 -20 -20 -23 13 -24 2 -4 -28
15 -20 15 -21 -1 -15 -24 9 -36 -18 -17 -39 20 -23 10 -24 -12 -1 -14 13 -18
14 -25 3 -5 -8 -6 -18 -4 -22 3 -4 0 -8 -6 -8 -7 0 -9 -7 -6 -16 4 -9 -2 -22
-14 -32 -12 -10 -22 -26 -22 -38 -1 -11 -9 -21 -18 -21 -12 -1 -16 8 -17 35
-1 44 -7 77 -21 113 -6 15 -8 30 -4 35 4 4 1 4 -5 0 -7 -4 -13 -15 -13 -24 0
-27 -18 0 -22 33 l-3 30 -22 -41 c-12 -23 -19 -44 -16 -48 4 -3 0 -6 -7 -6 -9
0 -8 -6 5 -20 18 -19 17 -20 -3 -20 -26 0 -27 -7 -5 -32 9 -10 13 -21 9 -26
-4 -4 -13 1 -21 11 -10 13 -15 15 -23 5 -16 -20 -51 -130 -47 -150 2 -10 1
-18 -3 -18 -10 0 -42 76 -42 99 0 10 -6 24 -14 30 -11 9 -14 6 -15 -14 -3 -48
-4 -53 -16 -49 -6 3 -12 15 -12 27 -2 35 -8 52 -18 56 -14 6 -33 -37 -30 -67
2 -24 2 -24 -10 -8 -8 10 -17 37 -20 59 -11 63 -17 65 -31 11 -7 -27 -10 -53
-7 -58 4 -5 1 -6 -5 -2 -7 4 -12 3 -12 -3 0 -5 5 -13 10 -16 6 -3 10 -11 10
-17 0 -7 -6 -6 -15 2 -8 7 -15 23 -15 36 0 27 -20 44 -21 17 0 -10 -6 0 -14
22 -7 22 -13 32 -14 23 -1 -10 -6 -18 -13 -18 -6 0 -9 -3 -6 -6 4 -3 -1 -26
-9 -50 -12 -36 -13 -47 -3 -59 11 -13 10 -14 -5 -9 -18 7 -19 -2 -4 -55 2 -7
-2 -16 -10 -19 -10 -3 -12 0 -8 12 5 12 3 16 -5 13 -7 -2 -18 5 -25 17 -7 12
-12 15 -13 9 0 -7 -7 -13 -16 -13 -11 0 -13 6 -9 19 3 11 1 22 -5 26 -5 3 -10
17 -10 30 0 58 -33 16 -35 -44 0 -8 -7 -15 -16 -16 -15 -3 -17 2 -21 45 -1 11
-6 20 -11 20 -4 0 -6 4 -2 10 3 5 -2 38 -12 74 l-17 65 -12 -36 c-7 -20 -14
-57 -15 -82 -3 -45 -12 -61 -37 -61 -8 0 -11 10 -7 30 3 17 2 30 -2 30 -5 0
-9 19 -11 42 -1 23 -7 47 -11 52 -5 6 -11 20 -13 31 -3 13 -7 5 -12 -22 -4
-24 -12 -43 -18 -43 -6 0 -5 -6 2 -15 10 -12 9 -15 -5 -15 -13 0 -15 -3 -7
-13 7 -8 8 -18 1 -27 -8 -13 -11 -12 -23 3 -13 17 -14 17 -21 0 -4 -10 -9 -29
-11 -42 -6 -32 -13 -41 -27 -40 -9 0 -9 2 1 6 17 7 15 23 -3 23 -16 0 -20 12
-7 24 13 14 9 56 -6 56 -10 0 -13 8 -9 25 3 18 -2 30 -17 41 -15 11 -18 17 -9
22 9 6 10 17 4 39 -5 17 -7 34 -3 37 3 3 0 6 -7 6 -7 0 -10 4 -6 9 3 6 -5 20
-18 33 -14 13 -29 32 -35 43 -10 17 -11 14 -12 -22 0 -29 -5 -45 -17 -52 -17
-10 -17 -12 2 -27 19 -16 19 -16 -7 -10 -22 5 -25 3 -21 -14 3 -12 0 -20 -7
-20 -7 0 -9 -8 -5 -20 4 -14 2 -20 -9 -20 -13 0 -14 -5 -6 -26 13 -32 12 -37
0 -29 -5 3 -10 -1 -10 -9 0 -8 5 -18 10 -21 19 -12 -1 -25 -21 -15 -21 12 -21
4 -3 -59 5 -17 4 -22 -4 -17 -16 10 -15 -6 1 -24 6 -8 0 -4 -14 8 -22 19 -28
20 -37 9 -7 -8 -9 -17 -5 -20 3 -4 2 -7 -4 -7 -6 0 -9 -9 -6 -20 3 -11 0 -20
-6 -20 -10 0 -36 -46 -33 -60 0 -3 -8 -7 -19 -7 -21 -2 -25 7 -9 23 8 8 7 20
-1 40 -7 16 -13 34 -14 39 -6 48 -19 84 -27 79 -5 -4 -8 -15 -5 -25 3 -11 2
-17 -3 -14 -10 6 -22 -54 -13 -68 4 -6 0 -8 -11 -4 -10 4 -15 3 -11 -3 6 -10
-15 -50 -27 -50 -14 0 -8 30 12 71 l21 40 -37 -7 c-26 -5 -35 -4 -30 5 4 6 13
11 20 11 13 0 66 51 66 64 0 4 -13 -2 -29 -13 -34 -25 -56 -27 -47 -6 3 8 9
23 13 32 5 12 2 15 -10 10 -14 -5 -15 -2 -7 19 14 37 12 39 -9 13 -11 -13 -22
-21 -26 -17 -4 4 2 19 14 34 26 33 27 46 4 37 -16 -6 -16 -5 -4 10 12 15 11
17 -3 17 -10 0 -16 9 -16 24 0 33 -10 57 -21 50 -5 -3 -9 -13 -9 -22 0 -9 -6
-29 -14 -44 -12 -23 -12 -27 0 -32 8 -3 14 -10 14 -17 0 -6 -7 -9 -15 -5 -11
4 -15 -2 -15 -20 0 -17 -4 -23 -12 -18 -8 5 -9 0 -6 -14 4 -12 2 -22 -3 -22
-16 0 -9 -21 16 -45 23 -24 23 -25 4 -25 -11 0 -30 5 -42 11 l-22 12 23 -25
c30 -33 28 -41 -9 -33 -28 6 -30 5 -20 -12 44 -71 50 -83 41 -83 -6 0 -10 -9
-10 -19 0 -11 -5 -23 -12 -27 -7 -4 -8 -3 -4 4 4 7 2 12 -4 12 -6 0 -9 8 -6
18 3 9 -1 28 -9 42 l-14 25 -1 -23 c0 -13 -5 -32 -11 -43 -7 -15 -7 -24 2 -35
14 -17 -1 -18 -25 -1 -9 7 -20 32 -23 55 -6 46 -23 48 -23 2 0 -16 -4 -31 -9
-34 -4 -3 -7 -21 -5 -41 1 -22 -2 -33 -8 -29 -5 3 -8 14 -5 23 2 9 -2 22 -9
29 -11 10 -15 8 -24 -8 -6 -11 -8 -24 -5 -29 3 -5 1 -11 -5 -13 -8 -2 -20 -60
-23 -105 0 -7 -4 -13 -9 -13 -5 0 -6 -4 -3 -10 3 -5 1 -10 -4 -10 -6 0 -10 -3
-9 -8 2 -4 -1 -8 -7 -10 -5 -1 -14 12 -18 30 l-9 33 -13 -33 c-12 -26 -20 -32
-45 -32 -40 0 -38 13 5 40 31 19 55 47 55 64 0 3 -16 -6 -36 -19 -65 -44 -69
-27 -9 35 31 34 55 63 52 67 -3 3 -29 -3 -57 -12 -52 -17 -84 -14 -38 4 36 14
51 57 22 63 -14 3 -13 7 5 30 29 36 26 41 -9 23 -34 -18 -39 -7 -15 35 22 39
19 51 -12 44 l-28 -7 20 22 c15 18 17 24 6 31 -8 4 -11 15 -8 23 4 12 2 14
-11 10 -15 -6 -16 -5 -2 12 14 17 13 17 -9 10 l-24 -7 23 33 24 32 -22 -5
c-23 -6 -29 1 -12 18 6 6 1 26 -12 54 l-21 45 -7 -35 c-3 -19 -5 -45 -4 -57 1
-14 -4 -23 -13 -23 -10 0 -12 -6 -8 -21 5 -13 3 -19 -3 -15 -5 3 -12 -9 -16
-26 -5 -24 -1 -37 16 -55 21 -22 21 -23 2 -23 -11 0 -26 6 -34 13 -9 8 -8 4 2
-14 16 -25 16 -26 -8 -21 -29 5 -30 -1 -6 -36 38 -55 38 -55 -2 -48 l-36 7 31
-52 c37 -60 30 -72 -38 -62 -24 3 -43 3 -43 0 0 -3 20 -18 45 -33 51 -29 55
-40 21 -55 -19 -9 -29 -7 -50 6 -34 23 -33 8 4 -43 19 -27 38 -42 53 -43 21 0
21 -1 -3 -10 -13 -6 -42 -7 -65 -3 -37 6 -39 5 -25 -11 8 -10 31 -25 50 -34
32 -14 33 -15 11 -19 -34 -5 -73 6 -65 20 8 13 -7 5 -52 -29 -36 -27 -49 -29
-40 -8 3 9 0 15 -9 15 -27 0 -16 19 23 39 20 11 42 28 49 39 12 20 10 20 -45
16 -31 -2 -52 -2 -45 2 7 3 9 12 6 20 -3 8 9 30 27 50 34 39 34 52 0 34 -31
-16 -36 -5 -17 35 23 47 22 58 -5 50 -16 -6 -20 -4 -15 8 4 11 0 13 -15 9 -20
-5 -19 -2 8 33 22 30 25 37 11 32 -15 -6 -17 -3 -11 15 5 17 3 20 -10 15 -14
-6 -15 -3 -6 13 9 16 8 20 -5 20 -9 0 -13 5 -10 10 3 6 1 10 -5 10 -7 0 -8 6
-2 17 10 20 -11 83 -21 66 -3 -5 -7 -32 -9 -60 -3 -45 -5 -50 -20 -42 -23 13
-23 4 3 -32 11 -16 15 -29 9 -29 -6 0 -13 7 -16 15 -4 8 -10 15 -15 15 -5 0
-4 -11 1 -25 8 -20 6 -25 -7 -25 -15 0 -15 -1 0 -18 19 -20 13 -34 -9 -25 -20
8 -17 -14 4 -26 15 -9 14 -10 -7 -11 -18 0 -22 -4 -16 -18 5 -9 10 -33 13 -52
l5 -34 -27 17 c-29 19 -32 16 -14 -13 11 -17 10 -22 0 -29 -18 -11 2 -59 29
-70 19 -6 20 -9 6 -14 -9 -3 -32 0 -51 8 l-34 15 34 -51 c43 -64 46 -89 7 -61
-16 11 -39 32 -52 46 -13 14 -28 23 -33 20 -5 -3 -6 8 -3 25 3 16 0 42 -6 58
-10 26 -12 26 -19 8 -29 -79 -37 -113 -28 -128 7 -13 5 -17 -7 -17 -9 0 -13
-5 -10 -10 3 -5 -2 -10 -11 -10 -15 0 -16 -2 -2 -17 30 -36 33 -47 9 -40 l-22
5 21 -35 c25 -43 19 -54 -23 -42 -45 13 -45 12 -7 -20 27 -22 32 -32 24 -41
-9 -9 -17 -9 -34 0 -15 8 -20 8 -16 1 7 -10 -4 -13 -69 -15 -11 -1 -38 -13
-60 -29 -41 -28 -61 -35 -50 -17 3 6 -1 7 -9 4 -21 -8 -20 2 5 37 16 22 17 27
5 23 -12 -5 -15 -2 -10 10 3 9 1 16 -6 16 -7 0 -9 8 -5 20 5 15 3 18 -8 14 -9
-3 -15 0 -14 8 0 7 -1 33 -2 58 l-1 45 -20 -43 c-15 -34 -17 -48 -9 -64 10
-18 9 -18 -10 -8 -24 12 -28 -2 -6 -20 8 -7 15 -17 15 -22 0 -6 -7 -8 -15 -4
-15 6 -19 -3 -15 -41 1 -15 -4 -23 -15 -23 -9 0 -14 -4 -11 -9 4 -5 -14 -20
-38 -34 l-44 -25 -6 42 c-3 22 -6 49 -7 59 0 9 -5 17 -10 17 -6 0 -8 4 -4 9 3
5 1 13 -5 16 -8 5 -8 11 -1 19 13 16 -22 52 -39 41 -7 -5 -9 2 -4 19 5 20 2
26 -10 26 -18 0 -22 15 -6 25 5 3 3 20 -7 41 -16 33 -18 34 -25 13 -5 -13 -6
-29 -3 -37 4 -10 0 -12 -12 -8 -15 6 -16 5 -5 -5 14 -15 16 -33 3 -25 -11 7
-21 -18 -21 -55 0 -16 -5 -29 -10 -29 -7 0 -7 -6 0 -19 17 -32 11 -48 -9 -24
-10 12 -22 19 -27 15 -5 -4 -3 0 3 8 8 11 8 25 -3 55 -7 22 -14 42 -14 45 -1
14 -49 -138 -50 -157 0 -14 -6 -23 -16 -23 -14 0 -14 -2 0 -22 18 -26 20 -38
6 -38 -5 0 -10 7 -10 15 0 8 -6 12 -15 9 -25 -10 -36 5 -20 29 23 32 18 39
-15 22 -16 -8 -37 -15 -47 -15 -14 1 -12 5 10 21 30 23 38 63 10 52 -18 -7
-13 7 15 40 13 15 13 17 1 17 -8 0 -20 -5 -27 -12 -20 -20 -24 -2 -8 31 22 42
20 54 -6 45 -21 -6 -21 -5 -9 10 12 15 13 19 1 26 -11 7 -11 11 -1 24 11 13
11 16 -2 16 -11 0 -13 6 -9 23 5 20 4 21 -14 7 -18 -15 -18 -14 0 13 l18 29
-24 -7 c-22 -6 -22 -6 -4 9 17 14 18 16 3 16 -12 0 -17 8 -17 29 0 46 -17 45
-24 -1 -4 -23 -12 -48 -18 -55 -7 -9 -7 -18 3 -30 9 -10 9 -14 2 -10 -7 5 -17
-1 -23 -14 -9 -17 -8 -24 6 -40 22 -24 13 -34 -16 -19 -19 10 -21 10 -11 -8 9
-16 4 -20 -42 -35 -28 -9 -53 -15 -55 -12 -2 2 10 19 27 37 35 37 39 52 13 44
-49 -15 -73 -17 -94 -10 l-23 8 25 6 c24 6 106 108 95 118 -2 3 -19 -6 -37
-20 -18 -14 -44 -31 -58 -38 -23 -12 -24 -12 -11 4 13 15 12 18 -7 23 -30 7
-27 18 8 33 28 12 96 78 88 86 -2 2 -27 -4 -55 -13 -31 -10 -58 -13 -69 -8
-18 8 -18 8 -1 12 11 3 16 10 13 19 -3 9 11 33 35 59 44 48 43 51 -9 36 -17
-5 -32 -9 -32 -7 0 1 9 19 20 41 20 39 25 65 14 65 -3 0 -15 -5 -26 -11 -19
-10 -20 -9 -15 10 6 24 -3 27 -22 9 -8 -7 -2 8 13 35 l26 47 -22 0 c-17 0 -19
3 -10 12 19 19 14 30 -10 22 -22 -7 -22 -6 -5 20 l18 27 -27 -7 c-19 -5 -25
-4 -20 5 4 6 14 11 22 11 8 0 14 5 14 10 0 6 -7 10 -16 10 -13 0 -15 7 -10 33
7 39 -8 71 -24 47 -5 -8 -10 -25 -10 -37 0 -12 -7 -29 -16 -38 -13 -12 -14
-18 -4 -31 11 -12 10 -13 -4 -8 -17 7 -23 -11 -6 -21 5 -3 15 -16 21 -27 10
-19 9 -20 -9 -16 -19 5 -20 2 -15 -23 5 -27 3 -29 -25 -29 -17 0 -43 5 -57 12
l-26 12 22 17 22 17 -30 6 c-17 4 -39 16 -49 27 -16 18 -16 19 2 19 17 0 16 2
-4 16 -12 8 -22 23 -22 33 0 14 6 17 29 13 39 -5 89 12 126 44 21 18 24 24 10
19 -37 -13 -50 -11 -47 9 3 15 0 17 -15 11 -10 -5 -36 -10 -58 -12 l-40 -4 28
16 c28 16 38 39 12 29 -8 -4 -26 -3 -40 0 -30 8 -36 46 -6 46 10 0 24 7 31 15
10 12 10 15 -2 15 -21 0 -48 33 -48 57 0 13 8 23 22 27 22 5 22 6 3 20 -11 9
-14 16 -7 16 19 0 14 17 -8 23 -16 4 -20 14 -20 49 0 31 -3 39 -10 28 -5 -8
-10 -34 -10 -57 0 -31 -5 -46 -21 -56 l-21 -15 21 -7 c40 -12 22 -85 -21 -85
-24 0 -23 -21 2 -27 11 -3 20 -9 20 -14 0 -15 -49 -41 -65 -35 -26 10 -16 -13
11 -27 l27 -14 -32 -11 c-18 -6 -46 -8 -64 -5 -28 6 -30 5 -19 -9 18 -23 75
-48 107 -48 23 0 26 -2 15 -15 -7 -8 -24 -15 -39 -15 -25 -1 -25 -1 -7 -15 11
-8 28 -15 38 -15 10 0 18 -6 18 -14 0 -19 -54 -40 -85 -32 -32 8 -32 -8 -1
-39 l24 -23 -23 -6 c-12 -3 -37 -1 -55 4 -19 5 -35 8 -37 7 -6 -7 32 -50 60
-67 l30 -19 -28 -7 -28 -7 24 -13 c13 -7 40 -14 59 -14 23 0 30 -3 22 -9 -20
-12 13 -23 46 -14 l26 6 -23 -31 c-12 -18 -31 -37 -41 -42 -41 -22 -140 -4
-124 22 5 7 1 9 -9 5 -20 -8 -22 4 -4 22 10 11 8 12 -12 6 -18 -6 -22 -4 -15
6 14 23 14 41 -1 68 -14 25 -14 25 -15 4 0 -12 -4 -25 -10 -28 -5 -3 -10 -15
-10 -26 0 -10 -5 -19 -12 -19 -6 0 -4 -7 5 -18 23 -26 21 -35 -5 -21 -18 10
-20 9 -14 -7 4 -10 1 -21 -6 -25 -9 -6 -9 -11 1 -23 11 -13 11 -16 -3 -16 -19
0 -21 -11 -4 -28 9 -9 7 -12 -9 -12 -21 0 -21 -1 -6 -31 8 -16 12 -33 9 -36
-9 -10 -66 -11 -66 -2 0 5 -7 9 -15 9 -20 0 -19 19 1 27 11 4 12 8 4 13 -8 5
-2 14 19 26 35 21 41 38 11 30 -11 -3 -29 -9 -40 -12 -11 -3 -20 -1 -20 5 0 6
11 11 25 11 20 0 25 5 25 25 0 19 -5 25 -21 25 -18 0 -20 2 -8 16 9 11 10 17
2 22 -6 4 -15 20 -18 35 -4 15 -13 27 -20 27 -8 0 -11 8 -8 18 2 10 -3 24 -11
31 -13 11 -16 11 -16 -1 0 -8 -9 -23 -21 -34 -12 -10 -18 -26 -15 -37 3 -12
-3 -22 -18 -28 -26 -12 -30 -37 -8 -62 20 -23 8 -33 -22 -18 -14 8 -30 10 -38
5 -10 -6 -10 -5 1 9 9 12 10 17 2 17 -7 0 -11 6 -10 13 3 20 -12 47 -27 47
-23 0 -17 46 9 57 l22 10 -23 7 c-22 7 -22 8 -5 22 16 12 16 13 1 14 -22 0
-31 16 -39 70 -6 44 -6 43 -8 -17 -1 -61 -11 -78 -29 -48 -7 14 -12 14 -38 1
-35 -16 -84 -29 -84 -21 0 3 14 11 30 16 16 6 30 15 30 21 0 6 -7 8 -15 5 -19
-8 -31 11 -16 26 21 21 11 27 -20 12 -17 -9 -33 -14 -35 -12 -3 3 12 13 32 24
52 27 58 48 11 40 -51 -8 -67 14 -30 43 l28 21 -34 -4 -35 -4 23 18 c17 14 19
19 7 19 -10 0 -13 6 -10 15 5 11 2 13 -9 9 -12 -4 -15 -1 -12 15 3 15 -1 21
-13 21 -15 0 -15 2 -2 10 11 7 11 10 2 10 -7 0 -10 5 -7 10 3 6 2 10 -3 10 -6
0 -9 6 -8 13 2 22 -19 19 -22 -4 -5 -28 -55 -79 -78 -79 -16 0 -14 4 11 25
l30 24 -29 1 c-24 0 -26 2 -16 15 17 21 20 65 4 65 -8 0 -14 5 -14 10 0 6 -9
19 -20 30 -25 25 -26 50 -1 50 28 0 35 17 10 25 -19 6 -19 8 -4 25 16 17 15
19 -7 22 -19 2 -24 11 -30 51 -10 71 -18 70 -18 -3 0 -52 -4 -68 -22 -87 l-22
-24 22 -6 c26 -6 27 -10 7 -57 -10 -24 -22 -36 -35 -36 -18 0 -19 -3 -9 -21 9
-17 8 -23 -2 -30 -11 -7 -9 -9 6 -9 33 -1 -5 -20 -40 -20 l-30 -1 30 -24 29
-24 -28 -11 c-16 -6 -45 -8 -65 -5 l-36 6 30 -25 c17 -14 33 -26 37 -26 3 0 4
-9 1 -20 -4 -16 0 -20 18 -20 22 0 22 0 3 -15 -10 -8 -26 -15 -36 -15 -9 0
-19 -6 -21 -12 -3 -7 -6 0 -6 15 -1 17 -5 26 -12 22 -6 -4 -9 -1 -8 6 1 8 -3
26 -11 41 -11 22 -15 25 -31 15 -13 -8 -15 -14 -6 -20 7 -5 2 -6 -12 -2 -15 5
-27 2 -33 -6 -7 -10 -8 -8 -5 9 4 16 0 22 -11 22 -13 0 -11 5 8 20 l25 20 -30
0 -30 1 25 21 c24 21 24 21 3 15 -18 -4 -23 -1 -23 13 0 10 -9 37 -20 61 l-19
44 -7 -32 c-3 -17 -13 -34 -21 -37 -8 -3 -12 -10 -8 -16 3 -5 -2 -21 -11 -35
-9 -14 -14 -32 -10 -40 4 -10 -1 -15 -16 -15 -21 0 -21 0 -2 -21 l19 -22 -25
13 c-23 12 -24 12 -11 -3 7 -10 21 -17 30 -17 10 0 8 -5 -9 -14 -29 -15 -62
-1 -38 16 8 6 3 7 -16 3 -23 -5 -27 -3 -22 10 3 10 2 14 -5 9 -6 -3 -10 1 -9
12 5 41 0 117 -7 110 -4 -4 -15 13 -24 36 -15 37 -18 40 -24 23 -4 -11 -20
-47 -36 -80 -20 -43 -24 -62 -16 -67 7 -5 2 -8 -13 -8 -23 -1 -24 -2 -7 -14
21 -16 22 -27 2 -20 -11 5 -13 2 -9 -10 3 -9 1 -16 -6 -16 -6 0 -8 -5 -4 -12
5 -8 2 -9 -10 -5 -10 4 -25 3 -35 -2 -13 -7 -17 -5 -18 10 -1 10 2 21 7 24 4
3 -3 28 -17 56 l-26 51 -18 -23 c-10 -13 -17 -29 -15 -35 2 -6 -5 -16 -16 -23
-15 -9 -17 -16 -9 -24 17 -17 13 -27 -12 -27 -15 0 -29 9 -37 25 -13 23 -14
24 -44 8 -30 -16 -31 -16 -16 3 8 10 20 22 25 26 6 4 0 8 -12 8 -28 0 -37 14
-18 30 17 14 20 35 4 24 -8 -4 -9 0 -4 15 5 17 2 21 -16 21 -16 0 -19 3 -11
13 7 8 6 18 -4 31 -8 11 -14 29 -14 39 0 16 -3 17 -15 7 -8 -7 -15 -24 -15
-39 0 -19 -3 -22 -9 -12 -5 8 -7 20 -4 28 3 8 -2 13 -13 13 -9 0 -14 3 -11 7
4 3 -5 22 -19 40 -14 19 -23 37 -20 40 3 3 1 14 -5 25 -10 19 -11 19 -24 1 -7
-10 -16 -33 -20 -51 -3 -17 -10 -32 -15 -32 -5 0 -10 -10 -12 -22 -2 -13 -9
-22 -16 -21 -17 4 -15 -17 5 -39 16 -18 16 -19 -5 -25 -18 -4 -20 -8 -11 -19
9 -11 8 -14 -6 -14 -10 0 -15 3 -12 6 3 4 1 16 -5 27 -10 20 -11 20 -22 -6
l-11 -27 -31 35 c-17 20 -28 38 -23 41 17 10 10 34 -8 27 -16 -6 -17 -5 -3 12
14 17 13 18 -7 13 -13 -4 -23 -2 -23 3 0 5 5 9 11 9 7 0 5 10 -6 26 -9 14 -14
32 -11 40 4 11 -1 14 -17 12 -30 -5 -49 -17 -42 -29 4 -5 -1 -12 -10 -15 -9
-4 -14 -13 -11 -20 3 -9 -1 -14 -12 -14 -15 -1 -15 -3 3 -17 18 -14 18 -15 2
-9 -14 4 -20 0 -24 -14 -3 -11 -10 -20 -15 -20 -5 0 -7 4 -4 9 3 5 -1 12 -10
15 -9 3 -14 13 -10 21 7 18 -20 96 -37 110 -7 6 -17 17 -21 25 -4 8 -13 26
-20 39 l-14 24 -16 -32 c-9 -17 -14 -35 -11 -40 6 -10 -20 -23 -29 -14 -3 4
-7 38 -7 77 -1 71 -1 71 -12 28 -8 -36 -17 -47 -49 -63 -21 -11 -38 -15 -38
-10 0 5 10 11 23 14 15 4 22 14 23 32 2 23 -1 26 -22 21 -24 -6 -24 -6 -9 17
14 22 14 25 0 30 -8 4 -15 16 -15 28 0 17 -5 20 -21 16 -16 -4 -18 -3 -9 8 6
7 8 20 4 29 -7 18 -24 22 -24 5 0 -6 -9 -24 -21 -40 -11 -16 -18 -36 -15 -44
3 -8 -4 -21 -16 -29 -27 -19 -33 -50 -13 -66 21 -17 19 -30 -4 -30 -11 0 -23
9 -26 20 -3 11 -12 20 -20 20 -7 0 -15 9 -18 19 -3 13 -17 22 -41 26 -31 6
-34 10 -26 25 14 27 12 43 -5 36 -8 -3 -15 -1 -15 4 0 6 5 10 10 10 6 0 1 9
-10 20 l-20 20 -40 -20 c-47 -24 -78 -26 -35 -2 28 16 29 17 8 20 -26 4 -27 6
-13 33 13 23 7 24 -26 3 -13 -9 -27 -14 -30 -11 -3 3 7 12 23 20 15 8 37 25
48 37 l20 22 -42 -7 c-59 -9 -73 3 -37 32 l29 23 -29 0 c-24 0 -27 2 -16 15
10 12 9 15 -5 15 -15 0 -16 2 -4 17 13 15 12 15 -11 3 -24 -12 -24 -12 -8 6
16 16 16 18 0 31 -12 10 -12 12 -2 8 9 -4 8 -1 -3 8 -10 9 -18 18 -18 21 6 51
-14 63 -26 17 -11 -41 -61 -101 -84 -101 -27 0 -24 9 14 42 l32 28 -30 -6
c-30 -7 -30 -7 -12 14 24 27 13 46 -22 37 l-26 -7 22 24 22 23 -25 24 c-13 13
-24 31 -24 40 0 12 -5 10 -20 -9 -13 -18 -15 -27 -7 -32 8 -5 5 -8 -8 -8 -16
0 -17 -2 -5 -10 12 -8 12 -10 -3 -16 -9 -3 -17 -12 -17 -18 0 -7 -9 -22 -20
-34 l-21 -22 31 0 c45 0 33 -24 -13 -28 -20 -2 -37 -7 -37 -13 0 -5 5 -9 10
-9 6 0 9 -4 8 -9 -2 -5 6 -16 17 -24 28 -21 14 -30 -33 -22 -36 6 -40 10 -46
43 -3 20 -6 60 -7 87 -1 46 -3 43 -13 -30 -10 -75 -12 -80 -37 -83 -16 -2 -30
-12 -37 -27 -8 -18 -16 -22 -33 -18 -15 4 -20 3 -15 -5 4 -7 2 -12 -5 -12 -6
0 -9 8 -6 20 4 14 0 20 -11 20 -14 1 -12 5 7 20 l23 20 -28 0 -29 0 25 20 c15
12 18 18 8 14 -13 -4 -18 -1 -18 13 0 11 -7 28 -15 39 -8 10 -15 30 -15 44 -1
24 -1 24 -16 5 -8 -11 -12 -25 -10 -31 3 -7 -2 -15 -10 -18 -8 -3 -14 -12 -14
-21 0 -8 -5 -15 -11 -15 -6 0 -9 -7 -6 -15 4 -8 2 -17 -4 -21 -6 -3 -8 -12 -5
-20 4 -9 -2 -14 -16 -14 -18 0 -19 -2 -7 -17 12 -15 12 -16 -4 -10 -26 10 -10
-12 17 -23 17 -7 15 -9 -17 -9 -23 -1 -36 3 -32 9 3 6 -4 10 -16 10 -18 0 -19
2 -9 15 11 13 10 14 -2 10 -12 -5 -15 5 -15 51 0 33 -5 59 -12 64 -7 4 -13 10
-12 13 0 4 -6 21 -14 39 -12 29 -14 31 -20 13 -4 -11 -13 -32 -21 -47 -8 -14
-14 -33 -14 -41 0 -9 -6 -17 -13 -20 -9 -3 -9 -9 1 -26 12 -20 11 -21 -15 -15
l-28 7 25 -22 25 -22 -24 7 c-15 4 -21 2 -17 -4 3 -6 -3 -13 -14 -16 -11 -3
-29 -9 -41 -12 -17 -5 -19 -3 -12 13 12 23 11 30 -9 73 -9 19 -19 44 -22 54
-6 19 -7 19 -20 0 -13 -17 -14 -16 -9 10 l6 29 -62 -33 c-34 -18 -63 -31 -66
-28 -3 2 18 40 45 83 28 44 50 83 50 87 0 15 -21 8 -80 -24 -48 -27 -61 -31
-72 -20 -18 18 0 43 41 57 35 11 64 42 55 56 -3 5 -23 6 -45 3 -46 -8 -48 -2
-14 38 32 37 32 56 0 68 -21 8 -24 14 -18 40 3 18 -2 59 -12 96 -17 65 -35 92
-35 55 0 -11 -4 -23 -10 -26 -5 -3 -10 -25 -10 -49 0 -30 -9 -56 -31 -90 -29
-47 -30 -50 -15 -80 l15 -31 -39 -3 c-44 -3 -47 -9 -25 -38 19 -25 19 -34 0
-34 -8 0 -15 9 -15 20 0 13 -5 18 -15 14 -8 -4 -15 -12 -15 -20 0 -8 -7 -14
-16 -14 -10 0 -14 -6 -10 -15 3 -9 0 -15 -8 -15 -25 0 -27 14 -4 32 19 14 20
18 6 18 -15 0 -15 3 -2 28 7 15 14 35 14 46 0 14 -5 17 -25 12 -14 -4 -25 -3
-26 1 -7 72 -24 86 -44 37 -38 -93 -39 -94 -65 -94 -25 1 -25 1 -5 16 14 11
16 18 7 21 -6 3 -10 9 -6 14 3 5 1 9 -5 9 -6 0 -4 16 4 41 8 23 15 51 15 64 0
13 15 34 40 54 22 17 40 40 40 50 0 33 -26 35 -160 15 l-35 -5 35 25 c72 52
113 107 93 127 -8 8 -30 -1 -79 -30 -64 -39 -124 -53 -124 -30 0 6 38 50 85
99 80 83 102 120 72 120 -7 0 -37 -7 -66 -16 -29 -8 -55 -13 -58 -10 -3 3 8
21 25 40 27 31 59 102 50 111 -1 2 -30 -8 -63 -21 -32 -13 -63 -23 -67 -22 -5
2 12 27 37 57 53 62 68 88 60 101 -11 17 -37 11 -86 -21 -50 -32 -69 -31 -69
2 0 15 14 26 50 41 36 15 50 26 50 41 0 17 -5 19 -40 14 -47 -6 -50 3 -15 45
31 37 31 46 0 60 -22 10 -24 16 -19 44 4 22 -2 59 -15 104 -23 74 -31 86 -31
45z m-604 -796 c18 -20 18 -20 -9 -14 -20 5 -27 4 -25 -6 2 -7 -5 -15 -14 -17
-27 -5 -23 33 5 46 12 6 22 11 23 11 0 1 9 -8 20 -20z m338 -35 c3 -8 2 -12
-4 -9 -6 3 -10 10 -10 16 0 14 7 11 14 -7z m45 -48 c13 -14 36 -30 52 -37 43
-17 29 -22 -25 -8 -29 7 -46 17 -46 26 0 10 -7 14 -20 10 -23 -6 -26 3 -8 21
17 17 21 15 47 -12z m-269 -36 c0 -11 -7 -20 -15 -20 -18 0 -19 12 -3 28 16
16 18 15 18 -8z m-13 -86 c-3 -3 -12 -4 -19 -1 -8 3 -5 6 6 6 11 1 17 -2 13
-5z m1103 -304 c0 -5 -5 -10 -11 -10 -5 0 -7 5 -4 10 3 6 8 10 11 10 2 0 4 -4
4 -10z m205 -210 c3 -5 -1 -10 -9 -10 -9 0 -16 5 -16 10 0 6 4 10 9 10 6 0 13
-4 16 -10z m12045 0 c0 -5 -4 -10 -10 -10 -5 0 -10 5 -10 10 0 6 5 10 10 10 6
0 10 -4 10 -10z m-11113 -6 c-3 -3 -12 -4 -19 -1 -8 3 -5 6 6 6 11 1 17 -2 13
-5z m10757 -20 c5 -14 4 -15 -9 -4 -17 14 -19 20 -6 20 5 0 12 -7 15 -16z
m426 -11 c0 -13 -3 -13 -15 -3 -8 7 -12 16 -9 21 8 13 24 1 24 -18z m-11400
-11 c-7 -3 -19 3 -28 13 -16 15 -15 16 12 4 15 -7 23 -15 16 -17z m10798 4
c-7 -8 -17 -12 -22 -9 -4 3 -2 9 5 14 22 13 31 11 17 -5z m-11363 -13 c-11 -3
-25 -9 -31 -14 -6 -5 -20 -6 -30 -2 -16 6 -14 8 11 14 17 4 39 7 50 7 l20 0
-20 -5z m11135 -31 c0 -13 -3 -12 -19 4 -10 10 -16 23 -14 27 7 12 33 -13 33
-31z m210 14 c0 -3 -4 -8 -10 -11 -5 -3 -10 -1 -10 4 0 6 5 11 10 11 6 0 10
-2 10 -4z m-10741 -15 c9 -6 -1 -10 -33 -12 -32 -3 -46 0 -46 8 0 15 57 17 79
4z m-401 -10 c10 -6 6 -11 -17 -19 -32 -11 -40 -5 -19 16 14 14 19 15 36 3z
m-193 -11 c8 -13 -5 -13 -25 0 -13 8 -13 10 2 10 9 0 20 -4 23 -10z m-35 -20
c0 -5 -8 -10 -17 -10 -15 0 -16 2 -3 10 19 12 20 12 20 0z m245 0 c3 -5 2 -10
-4 -10 -5 0 -13 5 -16 10 -3 6 -2 10 4 10 5 0 13 -4 16 -10z m779 -96 c23 -9
20 -26 -4 -19 -14 4 -20 2 -20 -8 0 -8 -7 -17 -15 -21 -21 -8 -19 24 3 40 21
16 17 15 36 8z m9903 -20 c-3 -3 -12 -4 -19 -1 -8 3 -5 6 6 6 11 1 17 -2 13
-5z m7 -30 c3 -8 2 -12 -4 -9 -6 3 -10 10 -10 16 0 14 7 11 14 -7z m-704 -25
c0 -6 -4 -7 -10 -4 -5 3 -10 1 -10 -6 0 -7 -2 -10 -5 -7 -9 8 6 38 16 32 5 -3
9 -10 9 -15z m-9099 -42 c-8 -8 -11 -7 -11 4 0 20 13 34 18 19 3 -7 -1 -17 -7
-23z m8919 18 c20 -24 6 -28 -15 -5 -10 11 -13 20 -8 20 6 0 16 -7 23 -15z
m-236 -11 c8 -21 8 -24 -5 -24 -5 0 -7 5 -4 10 3 6 -1 10 -10 10 -9 0 -13 5
-10 10 9 15 22 12 29 -6z m216 -8 c0 -3 -4 -8 -10 -11 -5 -3 -10 -1 -10 4 0 6
5 11 10 11 6 0 10 -2 10 -4z m-8600 -15 c0 -5 -7 -11 -15 -15 -15 -5 -20 5 -8
17 9 10 23 9 23 -2z m7356 -42 c6 -10 -11 -11 -44 -2 -16 4 -20 8 -12 13 14 9
48 2 56 -11z m-7392 5 c16 -6 12 -24 -5 -24 -6 0 -8 4 -5 9 4 5 0 12 -6 14 -7
3 -10 6 -6 6 3 1 13 -2 22 -5z m6 -50 l25 -15 -30 6 c-16 4 -34 11 -39 16 -16
15 16 10 44 -7z m70 -14 c0 -5 -5 -10 -11 -10 -5 0 -7 5 -4 10 3 6 8 10 11 10
2 0 4 -4 4 -10z m-55 -40 c-3 -5 -11 -10 -16 -10 -6 0 -7 5 -4 10 3 6 11 10
16 10 6 0 7 -4 4 -10z m8172 -16 c-3 -3 -12 -4 -19 -1 -8 3 -5 6 6 6 11 1 17
-2 13 -5z m13 -35 c0 -6 -4 -7 -10 -4 -5 3 -10 11 -10 16 0 6 5 7 10 4 6 -3
10 -11 10 -16z m-1040 -111 c0 -15 -18 -8 -25 10 -16 35 -13 46 5 22 11 -14
20 -28 20 -32z m-80 -49 c0 -6 -4 -7 -10 -4 -5 3 -10 11 -10 16 0 6 5 7 10 4
6 -3 10 -11 10 -16z m-6276 -34 c-6 -16 -24 -21 -24 -7 0 11 11 22 21 22 5 0
6 -7 3 -15z m211 -45 c-3 -5 -16 -10 -28 -10 -18 0 -19 2 -7 10 20 13 43 13
35 0z m241 -5 c19 -15 19 -15 -1 -9 -20 6 -20 5 -1 -10 11 -9 15 -16 9 -16 -7
0 -15 5 -18 10 -4 6 -15 8 -26 5 -21 -7 -25 5 -7 23 15 15 20 15 44 -3z m-207
-29 c10 -12 8 -13 -8 -9 -12 3 -18 9 -15 14 7 12 10 11 23 -5z m526 4 c3 -5
-1 -10 -10 -10 -9 0 -13 5 -10 10 3 6 8 10 10 10 2 0 7 -4 10 -10z m-555 -30
c0 -5 -8 -10 -17 -10 -15 0 -16 2 -3 10 19 12 20 12 20 0z m525 0 c-3 -5 -11
-10 -16 -10 -6 0 -7 5 -4 10 3 6 11 10 16 10 6 0 7 -4 4 -10z m4685 -30 c0 -3
-10 -7 -22 -7 -13 -1 -18 1 -12 5 6 4 10 16 8 27 -3 20 -3 20 12 1 8 -11 14
-23 14 -26z m-4675 -10 c3 -5 -3 -10 -15 -10 -12 0 -18 5 -15 10 3 6 10 10 15
10 5 0 12 -4 15 -10z m4790 0 c3 -5 2 -10 -4 -10 -5 0 -13 5 -16 10 -3 6 -2
10 4 10 5 0 13 -4 16 -10z m-290 -20 c3 -5 1 -10 -4 -10 -6 0 -11 5 -11 10 0
6 2 10 4 10 3 0 8 -4 11 -10z m265 0 c0 -5 -5 -10 -11 -10 -5 0 -7 5 -4 10 3
6 8 10 11 10 2 0 4 -4 4 -10z m-4263 -47 c3 -7 -3 -9 -16 -6 -15 4 -21 1 -21
-11 0 -9 -7 -16 -15 -16 -18 0 -20 21 -3 38 15 15 50 12 55 -5z m872 -13 c10
0 22 -13 29 -32 15 -40 10 -45 -22 -24 -29 18 -40 21 -31 6 9 -15 -11 -12 -24
4 -9 11 -8 15 5 20 14 5 14 9 3 23 -12 15 -12 16 4 10 10 -4 26 -7 36 -7z
m2676 -49 c-3 -5 0 -13 6 -17 8 -4 7 -9 -2 -15 -20 -13 -35 -11 -22 2 6 6 9
18 6 25 -3 8 0 14 7 14 6 0 9 -4 5 -9z m-266 -66 c0 -5 -6 -1 -14 9 -8 11 -15
24 -15 30 0 5 7 1 15 -10 8 -10 14 -23 14 -29z m-2404 -65 c3 -5 17 -10 31
-10 13 0 24 -4 24 -10 0 -23 -52 -8 -88 26 l-37 35 32 -15 c17 -9 35 -20 38
-26z m-325 -10 c0 -5 -5 -10 -11 -10 -5 0 -7 5 -4 10 3 6 8 10 11 10 2 0 4 -4
4 -10z m14 -51 c-3 -6 0 -15 7 -20 11 -7 10 -9 -3 -9 -18 0 -24 20 -11 33 10
11 15 8 7 -4z m156 -34 c0 -8 -4 -15 -10 -15 -5 0 -7 7 -4 15 4 8 8 15 10 15
2 0 4 -7 4 -15z m-100 -15 c0 -19 -20 -27 -33 -13 -8 7 11 33 24 33 5 0 9 -9
9 -20z m274 -15 c19 -15 19 -15 -1 -15 -11 0 -26 7 -33 15 -17 20 7 20 34 0z
m-500 -13 c2 -4 -4 -8 -14 -8 -10 0 -16 4 -14 8 3 4 9 8 14 8 5 0 11 -4 14 -8z
m203 -35 c-6 -19 -23 -18 -24 2 -1 14 3 18 13 14 8 -3 13 -10 11 -16z m2125
-17 c22 -16 50 -30 60 -30 11 0 16 -5 13 -11 -4 -6 -19 -7 -35 -4 -24 5 -28 3
-24 -12 7 -24 25 -47 49 -61 17 -11 15 -12 -20 -10 -32 2 -40 7 -38 21 0 12
-4 16 -13 13 -8 -3 -21 -3 -30 1 -13 5 -12 9 7 29 25 26 20 29 -30 14 -20 -6
-40 -6 -50 0 -13 7 -12 10 12 19 15 6 32 22 39 36 6 14 13 25 15 25 2 0 22
-13 45 -30z m-2352 10 c-19 -13 -30 -13 -30 0 0 6 10 10 23 10 18 0 19 -2 7
-10z m1970 0 c0 -5 -5 -10 -11 -10 -5 0 -7 5 -4 10 3 6 8 10 11 10 2 0 4 -4 4
-10z m74 -78 c-22 -3 -51 6 -82 24 -2 1 1 12 7 23 11 20 12 20 57 -12 46 -32
46 -32 18 -35z m-1164 -21 c0 -5 3 -17 7 -27 5 -14 2 -16 -20 -10 -36 9 -35
-11 1 -41 l27 -23 -25 -20 c-32 -25 -59 -27 -34 -3 16 17 16 18 -2 23 -13 3
-19 14 -19 33 1 15 -3 27 -7 27 -17 0 -7 16 20 32 30 19 52 23 52 9z m1395
-21 c-8 -13 -35 -13 -55 0 -11 7 -5 10 23 10 23 0 36 -4 32 -10z m-260 -10
c-28 -12 -37 -12 -30 0 3 6 16 10 28 9 21 0 21 -1 2 -9z m-1128 -176 c-3 -3
-12 -4 -19 -1 -8 3 -5 6 6 6 11 1 17 -2 13 -5z m253 -67 c0 -5 -7 -4 -15 3 -8
7 -15 20 -15 29 1 13 3 13 15 -3 8 -11 15 -24 15 -29z"/>
<path d="M1 4723 c-1 -45 8 -53 30 -27 11 14 11 18 -2 28 -9 6 -18 18 -22 26
-3 8 -6 -4 -6 -27z"/>
</g>
</svg>
